<svg width="100" height="100" viewBox="0 0 100 100" fill="none" xmlns="http://www.w3.org/2000/svg">
<g clip-path="url(#clip0_232_598)">
<path d="M79.167 36.2918L56.9462 19.0084C54.9961 17.4914 52.596 16.6677 50.1253 16.6677C47.6547 16.6677 45.2545 17.4914 43.3045 19.0084L21.0795 36.2918C19.7438 37.3304 18.6632 38.6606 17.9201 40.1807C17.1771 41.7008 16.7912 43.3706 16.792 45.0626V75.0626C16.792 77.2727 17.67 79.3923 19.2328 80.9552C20.7956 82.518 22.9152 83.3959 25.1253 83.3959H75.1253C77.3355 83.3959 79.4551 82.518 81.0179 80.9552C82.5807 79.3923 83.4587 77.2727 83.4587 75.0626V45.0626C83.4587 41.6334 81.8753 38.3959 79.167 36.2918Z" fill="#EC704A" stroke="#EC704A" stroke-width="3" stroke-linecap="round" stroke-linejoin="round"/>
<path d="M66.6663 62.5C57.458 68.0542 42.533 68.0542 33.333 62.5" stroke="#F9FAFB" stroke-width="3" stroke-linecap="round" stroke-linejoin="round"/>
</g>
<defs>
<clipPath id="clip0_232_598">
<rect width="100" height="100" fill="white"/>
</clipPath>
</defs>
</svg>
